<svg width="48" height="48" viewBox="0 0 48 48" fill="none" xmlns="http://www.w3.org/2000/svg">
<rect width="48" height="48" rx="24" fill="#F0F1FF"/>
<path d="M16.0181 29.5V19.3182H22.163V20.4119H17.2511V23.8523H21.8448V24.946H17.2511V28.4062H22.2425V29.5H16.0181ZM27.5273 29.5H24.3853V19.3182H27.6665C28.6542 19.3182 29.4994 19.522 30.2021 19.9297C30.9047 20.334 31.4433 20.9157 31.8178 21.6747C32.1924 22.4304 32.3796 23.3352 32.3796 24.3892C32.3796 25.4498 32.1907 26.3629 31.8129 27.1286C31.435 27.8909 30.8848 28.4775 30.1623 28.8885C29.4397 29.2962 28.5614 29.5 27.5273 29.5ZM25.6183 28.4062H27.4478C28.2897 28.4062 28.9873 28.2438 29.5408 27.919C30.0943 27.5942 30.507 27.1319 30.7788 26.532C31.0505 25.9321 31.1864 25.2178 31.1864 24.3892C31.1864 23.5672 31.0522 22.8596 30.7837 22.2663C30.5153 21.6697 30.1142 21.2124 29.5806 20.8942C29.047 20.5727 28.3825 20.4119 27.587 20.4119H25.6183V28.4062Z" fill="#4078FF"/>
</svg>
