<svg width="48" height="48" viewBox="0 0 48 48" fill="none" xmlns="http://www.w3.org/2000/svg">
<rect width="48" height="48" rx="24" fill="#F6F6F6"/>
<path d="M18.0517 25.2695L15 30.5764L18.2975 29.6893L19.181 33L21.8289 28.3955M29.9483 25.2695L33 30.5764L29.7025 29.6893L28.819 33L26.1712 28.3955M30.8587 21.8899C30.8587 25.6951 27.7862 28.7799 23.9962 28.7799C20.2062 28.7799 17.1338 25.6951 17.1338 21.8899C17.1338 18.0847 20.2062 15 23.9962 15C27.7862 15 30.8587 18.0847 30.8587 21.8899ZM24.277 18.1491L25.2223 20.0582C25.2434 20.1065 25.277 20.1483 25.3194 20.1793C25.3619 20.2104 25.4119 20.2295 25.4641 20.2348L27.5635 20.5549C27.6236 20.5627 27.6801 20.5875 27.7266 20.6265C27.7731 20.6654 27.8076 20.7168 27.826 20.7747C27.8444 20.8326 27.8461 20.8945 27.8308 20.9533C27.8154 21.0121 27.7837 21.0653 27.7394 21.1066L26.1896 22.5854C26.1665 22.6297 26.1544 22.6789 26.1544 22.7289C26.1544 22.7789 26.1665 22.8281 26.1896 22.8724L26.4864 24.9692C26.499 25.0298 26.4939 25.0928 26.4716 25.1505C26.4493 25.2082 26.4108 25.2582 26.3608 25.2945C26.3108 25.3307 26.2513 25.3515 26.1897 25.3545C26.1281 25.3575 26.067 25.3425 26.0137 25.3113L24.1451 24.318C24.0968 24.2961 24.0443 24.2848 23.9912 24.2848C23.9382 24.2848 23.8857 24.2961 23.8373 24.318L21.9688 25.3113C21.9155 25.3425 21.8543 25.3575 21.7927 25.3545C21.7311 25.3515 21.6717 25.3307 21.6217 25.2945C21.5716 25.2582 21.5331 25.2082 21.5109 25.1505C21.4886 25.0928 21.4835 25.0298 21.4961 24.9692L21.8479 22.8724C21.863 22.8237 21.8659 22.772 21.8563 22.722C21.8467 22.6719 21.8249 22.625 21.7929 22.5854L20.2431 21.0956C20.202 21.0538 20.1731 21.0014 20.1597 20.9443C20.1462 20.8871 20.1487 20.8273 20.1669 20.7714C20.1851 20.7156 20.2182 20.6658 20.2626 20.6276C20.3071 20.5894 20.3612 20.5643 20.4189 20.5549L22.5183 20.2458C22.5706 20.2405 22.6205 20.2214 22.663 20.1904C22.7055 20.1594 22.739 20.1176 22.7602 20.0693L23.7055 18.1601C23.7307 18.106 23.7706 18.0602 23.8205 18.0277C23.8704 17.9952 23.9283 17.9774 23.9878 17.9762C24.0473 17.9751 24.1059 17.9906 24.157 18.0212C24.2081 18.0517 24.2497 18.096 24.277 18.1491Z" stroke="#0E1422" stroke-width="1.43" stroke-linecap="round" stroke-linejoin="round"/>
</svg>
