<svg width="48" height="48" viewBox="0 0 48 48" fill="none" xmlns="http://www.w3.org/2000/svg">
<rect width="48" height="48" rx="24" fill="#F6F6F6"/>
<path d="M27.7007 28.7309V17.0985C27.7007 16.1517 26.9332 15.3842 25.9864 15.3842H14.9184C13.9716 15.3842 13.2041 16.1517 13.2041 17.0985V28.4568C13.2041 29.4036 13.9716 30.171 14.9184 30.171H16.2041M34.7959 23.4969H27.7031M32.489 29.8512H33.0799C34.0267 29.8512 34.7942 29.0837 34.7942 28.1369V22.9924L32.4072 18.1052C32.1197 17.5166 31.5219 17.1433 30.8667 17.1433H28.0099M26.7037 30.1707H21.668M16.2891 30.2226C16.2891 30.8573 16.5413 31.4661 16.9901 31.9149C17.4389 32.3637 18.0476 32.6158 18.6823 32.6158C19.317 32.6158 19.9257 32.3637 20.3745 31.9149C20.8233 31.4661 21.0754 30.8573 21.0754 30.2226C21.0754 29.5879 20.8233 28.9792 20.3745 28.5304C19.9257 28.0816 19.317 27.8295 18.6823 27.8295C18.0476 27.8295 17.4389 28.0816 16.9901 28.5304C16.5413 28.9792 16.2891 29.5879 16.2891 30.2226ZM27.1526 30.2226C27.1526 30.8573 27.4047 31.4661 27.8535 31.9149C28.3023 32.3637 28.911 32.6158 29.5457 32.6158C30.1804 32.6158 30.7891 32.3637 31.2379 31.9149C31.6867 31.4661 31.9389 30.8573 31.9389 30.2226C31.9389 29.5879 31.6867 28.9792 31.2379 28.5304C30.7891 28.0816 30.1804 27.8295 29.5457 27.8295C28.911 27.8295 28.3023 28.0816 27.8535 28.5304C27.4047 28.9792 27.1526 29.5879 27.1526 30.2226Z" stroke="#0E1422" stroke-width="1.71429" stroke-linecap="round" stroke-linejoin="round"/>
</svg>
