<svg width="44" height="44" viewBox="0 0 44 44" fill="none" xmlns="http://www.w3.org/2000/svg">
<rect x="0.5" y="0.5" width="43" height="43" rx="5.5" stroke="#E6E7E8"/>
<path d="M26.4769 13.3485L20.204 9.55503C19.6119 9.19286 18.9388 9.00144 18.2532 9.00024C16.2094 9.00024 14.3348 10.7122 14.3348 13.105V27.3073L26.4769 19.9669C28.9083 18.4946 28.9083 14.8199 26.4769 13.3485ZM17.8484 20.4479V12.8679L24.1163 16.6566L17.8484 20.4479Z" fill="#0E1422"/>
<path d="M29.8489 34.9844C29.8489 35.0273 17.9908 34.966 17.9908 34.966L16.9434 34.8425C15.2467 34.644 13.9443 33.1232 14.002 31.3346C14.002 31.2917 14.0057 31.2518 14.0081 31.2102C14.0547 30.4364 14.3261 29.6961 14.7858 29.0884C14.9725 28.8461 15.2009 28.6425 15.4592 28.4882L24.4782 23.0724C26.3414 21.9534 27.8931 21.562 28.6999 19.534C28.9974 18.7756 29.126 17.9561 29.0757 17.1378L29.0446 16.5865L29.9651 21.9204C30.083 22.8263 29.9013 23.7537 29.4211 24.5168C29.1326 24.9784 28.7475 25.3652 28.2951 25.6478L17.8295 30.8943C17.8191 30.9005 17.809 30.9074 17.7993 30.9148C17.5127 31.1292 17.6896 31.6068 18.0403 31.5867L26.7515 31.6402C28.4433 31.5416 29.8526 33.2111 29.8489 34.9844Z" fill="#0E1422"/>
</svg>
