<svg width="48" height="48" viewBox="0 0 48 48" fill="none" xmlns="http://www.w3.org/2000/svg">
<rect width="48" height="48" rx="24" fill="#F6F6F6"/>
<path d="M27.7272 20.279L22.7633 25.8604L20.2813 23.9999M24.443 31.9176C24.1579 32.0275 23.842 32.0275 23.5569 31.9176C21.332 31.0638 19.4186 29.5557 18.0693 27.5921C16.7201 25.6287 15.9986 23.3024 16 20.9204V17.2301C16 16.9039 16.1297 16.591 16.3605 16.3603C16.5913 16.1296 16.9044 16 17.2308 16H30.7692C31.0956 16 31.4087 16.1296 31.6395 16.3603C31.8703 16.591 32 16.9039 32 17.2301V20.9204C32.0014 23.3024 31.2799 25.6287 29.9307 27.5921C28.5814 29.5557 26.6679 31.0638 24.443 31.9176Z" stroke="#0E1422" stroke-width="1.43" stroke-linecap="round" stroke-linejoin="round"/>
</svg>
