<svg width="24" height="25" viewBox="0 0 24 25" fill="none" xmlns="http://www.w3.org/2000/svg">
<path d="M6.14284 13.0714C5.82725 13.0714 5.57141 12.8156 5.57141 12.5C5.57141 12.1844 5.82725 11.9286 6.14284 11.9286" stroke="#5C5F6A" stroke-width="1.8" stroke-linecap="round" stroke-linejoin="round"/>
<path d="M6.14284 13.0714C6.45843 13.0714 6.71427 12.8156 6.71427 12.5C6.71427 12.1844 6.45843 11.9286 6.14284 11.9286" stroke="#5C5F6A" stroke-width="1.8" stroke-linecap="round" stroke-linejoin="round"/>
<path d="M12 13.0714C11.6844 13.0714 11.4286 12.8156 11.4286 12.5C11.4286 12.1844 11.6844 11.9286 12 11.9286" stroke="#5C5F6A" stroke-width="1.8" stroke-linecap="round" stroke-linejoin="round"/>
<path d="M12 13.0714C12.3156 13.0714 12.5714 12.8156 12.5714 12.5C12.5714 12.1844 12.3156 11.9286 12 11.9286" stroke="#5C5F6A" stroke-width="1.8" stroke-linecap="round" stroke-linejoin="round"/>
<path d="M17.8571 13.0714C17.5415 13.0714 17.2856 12.8156 17.2856 12.5C17.2856 12.1844 17.5415 11.9286 17.8571 11.9286" stroke="#5C5F6A" stroke-width="1.8" stroke-linecap="round" stroke-linejoin="round"/>
<path d="M17.8571 13.0714C18.1727 13.0714 18.4285 12.8156 18.4285 12.5C18.4285 12.1844 18.1727 11.9286 17.8571 11.9286" stroke="#5C5F6A" stroke-width="1.8" stroke-linecap="round" stroke-linejoin="round"/>
</svg>
